<mxfile host="app.diagrams.net" modified="2022-07-13T08:54:58.252Z" agent="5.0 (Windows NT 10.0; Win64; x64) AppleWebKit/537.36 (KHTML, like Gecko) Chrome/103.0.0.0 Safari/537.36" etag="z9VS5aFy7xpj4Dk9S9Wl" version="20.1.1" type="github">
  <diagram id="PtT95D6H_O3GTWSM9Tt8" name="Page-1">
    <mxGraphModel dx="1178" dy="614" grid="1" gridSize="10" guides="1" tooltips="1" connect="1" arrows="1" fold="1" page="1" pageScale="1" pageWidth="827" pageHeight="1169" math="0" shadow="0">
      <root>
        <mxCell id="0" />
        <mxCell id="1" parent="0" />
        <mxCell id="DGJ5Srzak-pS6ZyIDQUv-5" value="&lt;b&gt;数据本地或云存储&lt;/b&gt;" style="strokeWidth=2;html=1;shape=mxgraph.flowchart.database;whiteSpace=wrap;" vertex="1" parent="1">
          <mxGeometry x="420" y="390" width="160" height="40" as="geometry" />
        </mxCell>
        <mxCell id="DGJ5Srzak-pS6ZyIDQUv-36" style="edgeStyle=orthogonalEdgeStyle;rounded=0;orthogonalLoop=1;jettySize=auto;html=1;fontFamily=Times New Roman;fontSize=11;fontColor=#000000;dashed=1;dashPattern=1 1;" edge="1" parent="1" source="DGJ5Srzak-pS6ZyIDQUv-6">
          <mxGeometry relative="1" as="geometry">
            <mxPoint x="720" y="260" as="targetPoint" />
            <Array as="points">
              <mxPoint x="720" y="200" />
            </Array>
          </mxGeometry>
        </mxCell>
        <mxCell id="DGJ5Srzak-pS6ZyIDQUv-6" value="&lt;b&gt;第三方公司标注数据&lt;/b&gt;" style="strokeWidth=2;html=1;shape=mxgraph.flowchart.database;whiteSpace=wrap;" vertex="1" parent="1">
          <mxGeometry x="540" y="180" width="140" height="40" as="geometry" />
        </mxCell>
        <mxCell id="DGJ5Srzak-pS6ZyIDQUv-19" value="" style="group" vertex="1" connectable="0" parent="1">
          <mxGeometry x="149.99999999999997" y="248" width="61.09" height="102" as="geometry" />
        </mxCell>
        <mxCell id="DGJ5Srzak-pS6ZyIDQUv-4" value="" style="aspect=fixed;html=1;points=[];align=center;image;fontSize=12;image=img/lib/azure2/general/Image.svg;" vertex="1" parent="DGJ5Srzak-pS6ZyIDQUv-19">
          <mxGeometry y="60" width="61.09" height="42" as="geometry" />
        </mxCell>
        <mxCell id="DGJ5Srzak-pS6ZyIDQUv-17" value="" style="shape=image;html=1;verticalAlign=top;verticalLabelPosition=bottom;labelBackgroundColor=#ffffff;imageAspect=0;aspect=fixed;image=https://cdn4.iconfinder.com/data/icons/48-bubbles/48/23.Videos-128.png" vertex="1" parent="DGJ5Srzak-pS6ZyIDQUv-19">
          <mxGeometry x="0.5400000000000205" width="60" height="60" as="geometry" />
        </mxCell>
        <mxCell id="DGJ5Srzak-pS6ZyIDQUv-20" value="" style="endArrow=classic;html=1;rounded=0;fontFamily=Times New Roman;fontSize=11;fontColor=#000000;exitX=1.02;exitY=0.878;exitDx=0;exitDy=0;exitPerimeter=0;" edge="1" parent="1" source="DGJ5Srzak-pS6ZyIDQUv-17" target="DGJ5Srzak-pS6ZyIDQUv-7">
          <mxGeometry width="50" height="50" relative="1" as="geometry">
            <mxPoint x="221.09" y="290" as="sourcePoint" />
            <mxPoint x="271.09000000000003" y="240" as="targetPoint" />
          </mxGeometry>
        </mxCell>
        <mxCell id="DGJ5Srzak-pS6ZyIDQUv-34" value="" style="group" vertex="1" connectable="0" parent="1">
          <mxGeometry x="240" y="248" width="540" height="140" as="geometry" />
        </mxCell>
        <mxCell id="DGJ5Srzak-pS6ZyIDQUv-15" value="" style="rounded=0;whiteSpace=wrap;html=1;fontFamily=Times New Roman;fontSize=11;fontColor=#000000;fillColor=none;dashed=1;dashPattern=1 1;strokeWidth=2;strokeColor=#3333FF;" vertex="1" parent="DGJ5Srzak-pS6ZyIDQUv-34">
          <mxGeometry width="540" height="110.00000000000001" as="geometry" />
        </mxCell>
        <mxCell id="DGJ5Srzak-pS6ZyIDQUv-7" value="&lt;font style=&quot;&quot; face=&quot;Times New Roman&quot;&gt;&lt;span style=&quot;color: rgb(51, 51, 255); font-weight: bold; font-size: 15px;&quot;&gt;数据筛选&lt;/span&gt;&lt;br&gt;&lt;font style=&quot;font-size: 11px;&quot;&gt;视频抽帧标注图像标注&lt;/font&gt;&lt;br&gt;&lt;/font&gt;" style="whiteSpace=wrap;html=1;aspect=fixed;" vertex="1" parent="DGJ5Srzak-pS6ZyIDQUv-34">
          <mxGeometry x="10.18867924528302" y="11" width="81.50943396226415" height="81.50943396226415" as="geometry" />
        </mxCell>
        <mxCell id="DGJ5Srzak-pS6ZyIDQUv-8" value="&lt;font style=&quot;font-weight: bold; font-size: 15px;&quot; color=&quot;#0000ff&quot;&gt;自动预标注&lt;/font&gt;&lt;font style=&quot;font-size: 11px;&quot;&gt;基于已有模型进行智能标注&lt;/font&gt;" style="whiteSpace=wrap;html=1;aspect=fixed;" vertex="1" parent="DGJ5Srzak-pS6ZyIDQUv-34">
          <mxGeometry x="122.26415094339623" y="11" width="81.50943396226415" height="81.50943396226415" as="geometry" />
        </mxCell>
        <mxCell id="DGJ5Srzak-pS6ZyIDQUv-10" value="&lt;font style=&quot;&quot; face=&quot;Times New Roman&quot;&gt;&lt;span style=&quot;color: rgb(51, 51, 255); font-weight: bold; font-size: 15px;&quot;&gt;难例集生成&lt;/span&gt;&lt;br&gt;&lt;span style=&quot;font-size: 11px;&quot;&gt;基于置信度选取难例和未识别案例，减少预标注量&lt;/span&gt;&lt;br&gt;&lt;/font&gt;" style="whiteSpace=wrap;html=1;aspect=fixed;" vertex="1" parent="DGJ5Srzak-pS6ZyIDQUv-34">
          <mxGeometry x="234.33962264150944" y="12" width="81.50943396226415" height="81.50943396226415" as="geometry" />
        </mxCell>
        <mxCell id="DGJ5Srzak-pS6ZyIDQUv-11" value="&lt;font color=&quot;#0000ff&quot; style=&quot;font-size: 15px;&quot;&gt;&lt;b&gt;难例标注&lt;br&gt;&lt;/b&gt;&lt;/font&gt;&lt;span style=&quot;font-size: 11px;&quot;&gt;人工标注补充数据集&lt;/span&gt;" style="whiteSpace=wrap;html=1;aspect=fixed;" vertex="1" parent="DGJ5Srzak-pS6ZyIDQUv-34">
          <mxGeometry x="336.22641509433964" y="9.9" width="81.50943396226415" height="81.50943396226415" as="geometry" />
        </mxCell>
        <mxCell id="DGJ5Srzak-pS6ZyIDQUv-13" value="&lt;font color=&quot;#0000ff&quot; style=&quot;font-size: 15px;&quot;&gt;&lt;b&gt;数据集&lt;br&gt;&lt;/b&gt;&lt;/font&gt;&lt;span style=&quot;font-size: 11px;&quot;&gt;已完成标注任务的数据集&lt;/span&gt;" style="whiteSpace=wrap;html=1;aspect=fixed;" vertex="1" parent="DGJ5Srzak-pS6ZyIDQUv-34">
          <mxGeometry x="438.1132075471698" y="9.9" width="81.50943396226415" height="81.50943396226415" as="geometry" />
        </mxCell>
        <mxCell id="DGJ5Srzak-pS6ZyIDQUv-22" value="" style="endArrow=classic;html=1;rounded=0;fontFamily=Times New Roman;fontSize=11;fontColor=#000000;exitX=1;exitY=0.5;exitDx=0;exitDy=0;entryX=0;entryY=0.5;entryDx=0;entryDy=0;" edge="1" parent="DGJ5Srzak-pS6ZyIDQUv-34" source="DGJ5Srzak-pS6ZyIDQUv-7" target="DGJ5Srzak-pS6ZyIDQUv-8">
          <mxGeometry width="50" height="50" relative="1" as="geometry">
            <mxPoint x="91.69811320754717" y="66" as="sourcePoint" />
            <mxPoint x="142.64150943396226" y="11" as="targetPoint" />
          </mxGeometry>
        </mxCell>
        <mxCell id="DGJ5Srzak-pS6ZyIDQUv-23" value="" style="endArrow=classic;html=1;rounded=0;fontFamily=Times New Roman;fontSize=11;fontColor=#000000;exitX=1;exitY=0.5;exitDx=0;exitDy=0;entryX=0;entryY=0.5;entryDx=0;entryDy=0;" edge="1" parent="DGJ5Srzak-pS6ZyIDQUv-34">
          <mxGeometry width="50" height="50" relative="1" as="geometry">
            <mxPoint x="203.77358490566039" y="54.86800000000006" as="sourcePoint" />
            <mxPoint x="234.33962264150944" y="54.86800000000006" as="targetPoint" />
          </mxGeometry>
        </mxCell>
        <mxCell id="DGJ5Srzak-pS6ZyIDQUv-24" value="" style="endArrow=classic;html=1;rounded=0;fontFamily=Times New Roman;fontSize=11;fontColor=#000000;exitX=1.01;exitY=0.528;exitDx=0;exitDy=0;exitPerimeter=0;" edge="1" parent="DGJ5Srzak-pS6ZyIDQUv-34" source="DGJ5Srzak-pS6ZyIDQUv-10">
          <mxGeometry width="50" height="50" relative="1" as="geometry">
            <mxPoint x="315.8490566037736" y="53.713000000000115" as="sourcePoint" />
            <mxPoint x="336.22641509433964" y="55.00000000000001" as="targetPoint" />
          </mxGeometry>
        </mxCell>
        <mxCell id="DGJ5Srzak-pS6ZyIDQUv-29" value="&lt;font style=&quot;&quot; face=&quot;Times New Roman&quot;&gt;&lt;span style=&quot;color: rgb(51, 51, 255); font-weight: bold; font-size: 15px;&quot;&gt;数据筛选&lt;/span&gt;&lt;br&gt;&lt;font style=&quot;font-size: 11px;&quot;&gt;视频抽帧标注图像标注&lt;/font&gt;&lt;br&gt;&lt;/font&gt;" style="whiteSpace=wrap;html=1;aspect=fixed;" vertex="1" parent="DGJ5Srzak-pS6ZyIDQUv-34">
          <mxGeometry x="10.18867924528302" y="11" width="81.50943396226415" height="81.50943396226415" as="geometry" />
        </mxCell>
        <mxCell id="DGJ5Srzak-pS6ZyIDQUv-33" value="" style="endArrow=classic;html=1;rounded=0;fontFamily=Times New Roman;fontSize=11;fontColor=#000000;exitX=1;exitY=0.5;exitDx=0;exitDy=0;" edge="1" parent="DGJ5Srzak-pS6ZyIDQUv-34">
          <mxGeometry width="50" height="50" relative="1" as="geometry">
            <mxPoint x="417.7358490566038" y="54.86800000000006" as="sourcePoint" />
            <mxPoint x="438.1132075471698" y="54.86799999999994" as="targetPoint" />
          </mxGeometry>
        </mxCell>
        <mxCell id="DGJ5Srzak-pS6ZyIDQUv-48" value="&lt;font color=&quot;#0000ff&quot;&gt;迭代优化模型精度、实现样本筛选标注准确度&lt;/font&gt;" style="text;html=1;strokeColor=none;fillColor=none;align=center;verticalAlign=middle;whiteSpace=wrap;rounded=0;fontFamily=Times New Roman;fontSize=12;fontColor=#000000;" vertex="1" parent="DGJ5Srzak-pS6ZyIDQUv-34">
          <mxGeometry x="290" y="110" width="250" height="30" as="geometry" />
        </mxCell>
        <mxCell id="DGJ5Srzak-pS6ZyIDQUv-35" style="edgeStyle=orthogonalEdgeStyle;rounded=0;orthogonalLoop=1;jettySize=auto;html=1;exitX=0.5;exitY=0;exitDx=0;exitDy=0;entryX=0;entryY=0.5;entryDx=0;entryDy=0;entryPerimeter=0;fontFamily=Times New Roman;fontSize=11;fontColor=#000000;dashed=1;dashPattern=1 1;" edge="1" parent="1" source="DGJ5Srzak-pS6ZyIDQUv-10" target="DGJ5Srzak-pS6ZyIDQUv-6">
          <mxGeometry relative="1" as="geometry" />
        </mxCell>
        <mxCell id="DGJ5Srzak-pS6ZyIDQUv-37" value="&lt;b&gt;&lt;font style=&quot;font-size: 17px;&quot;&gt;数据标注流程&lt;/font&gt;&lt;/b&gt;" style="text;html=1;strokeColor=none;fillColor=none;align=center;verticalAlign=middle;whiteSpace=wrap;rounded=0;dashed=1;dashPattern=1 1;fontFamily=Times New Roman;fontSize=11;fontColor=#3333FF;" vertex="1" parent="1">
          <mxGeometry x="310" y="230" width="119.24" height="11.41" as="geometry" />
        </mxCell>
        <mxCell id="DGJ5Srzak-pS6ZyIDQUv-38" value="" style="endArrow=classic;startArrow=classic;html=1;rounded=0;fontFamily=Times New Roman;fontSize=17;fontColor=#3333FF;entryX=0.48;entryY=0.996;entryDx=0;entryDy=0;entryPerimeter=0;exitX=0.5;exitY=0;exitDx=0;exitDy=0;exitPerimeter=0;strokeWidth=2;" edge="1" parent="1" source="DGJ5Srzak-pS6ZyIDQUv-5" target="DGJ5Srzak-pS6ZyIDQUv-15">
          <mxGeometry width="50" height="50" relative="1" as="geometry">
            <mxPoint x="490" y="420" as="sourcePoint" />
            <mxPoint x="540" y="370" as="targetPoint" />
          </mxGeometry>
        </mxCell>
        <mxCell id="DGJ5Srzak-pS6ZyIDQUv-41" value="&lt;font color=&quot;#000000&quot; style=&quot;font-size: 12px;&quot;&gt;&lt;b&gt;模型训练&lt;/b&gt;&lt;/font&gt;" style="rounded=0;whiteSpace=wrap;html=1;fontFamily=Times New Roman;fontSize=17;fontColor=#3333FF;strokeColor=#000000;strokeWidth=1;fillColor=none;" vertex="1" parent="1">
          <mxGeometry x="820" y="276.5" width="80" height="45" as="geometry" />
        </mxCell>
        <mxCell id="DGJ5Srzak-pS6ZyIDQUv-42" style="edgeStyle=orthogonalEdgeStyle;rounded=0;orthogonalLoop=1;jettySize=auto;html=1;exitX=1;exitY=0.5;exitDx=0;exitDy=0;entryX=0;entryY=0.5;entryDx=0;entryDy=0;fontFamily=Times New Roman;fontSize=12;fontColor=#000000;strokeWidth=1;" edge="1" parent="1" source="DGJ5Srzak-pS6ZyIDQUv-13" target="DGJ5Srzak-pS6ZyIDQUv-41">
          <mxGeometry relative="1" as="geometry" />
        </mxCell>
        <mxCell id="DGJ5Srzak-pS6ZyIDQUv-43" style="edgeStyle=orthogonalEdgeStyle;rounded=0;orthogonalLoop=1;jettySize=auto;html=1;exitX=0.355;exitY=1.015;exitDx=0;exitDy=0;entryX=0.5;entryY=1;entryDx=0;entryDy=0;fontFamily=Times New Roman;fontSize=12;fontColor=#000000;strokeWidth=1;startArrow=none;exitPerimeter=0;" edge="1" parent="1" source="DGJ5Srzak-pS6ZyIDQUv-41" target="DGJ5Srzak-pS6ZyIDQUv-8">
          <mxGeometry relative="1" as="geometry">
            <mxPoint x="709" y="369.4100000000001" as="sourcePoint" />
          </mxGeometry>
        </mxCell>
      </root>
    </mxGraphModel>
  </diagram>
</mxfile>
